<?xml version="1.0" standalone="no"?>
<!DOCTYPE svg PUBLIC "-//W3C//DTD SVG 20010904//EN"
 "http://www.w3.org/TR/2001/REC-SVG-20010904/DTD/svg10.dtd">
<svg version="1.0" xmlns="http://www.w3.org/2000/svg"
 width="1450.000000pt" height="1450.000000pt" viewBox="0 0 1450.000000 1450.000000"
 preserveAspectRatio="xMidYMid meet">
<metadata>
Created by potrace 1.14, written by Peter Selinger 2001-2017
</metadata>
<g transform="translate(0.000000,1450.000000) scale(0.100000,-0.100000)"
fill="#000000" stroke="none">
<path d="M6975 13900 c-264 -10 -534 -42 -875 -104 -327 -60 -781 -197 -1129
-341 -169 -70 -594 -275 -651 -315 -14 -9 -33 -19 -42 -23 -51 -18 -392 -242
-631 -414 -409 -294 -917 -780 -1238 -1183 -179 -225 -353 -472 -506 -720 -91
-147 -101 -163 -205 -352 -185 -335 -388 -840 -499 -1238 -80 -290 -154 -675
-190 -990 -7 -58 -15 -312 -18 -565 l-6 -460 -411 -5 c-383 -5 -413 -6 -432
-24 -45 -40 -36 -117 17 -149 27 -16 404 -17 5873 -17 3213 0 6374 3 7023 7
l1179 6 23 23 c33 33 32 93 -3 127 l-26 27 -297 2 -296 3 -1 350 c-2 597 -40
916 -180 1524 -37 164 -150 513 -231 719 -97 248 -271 613 -377 791 -18 31
-57 97 -86 146 -198 335 -482 725 -747 1025 -133 150 -499 512 -638 631 -345
293 -702 545 -1070 756 -89 51 -409 210 -545 270 -246 109 -647 248 -875 303
-71 17 -152 38 -180 45 -91 26 -371 75 -585 105 -281 38 -746 54 -1145 40z
m830 -160 c208 -21 283 -30 390 -46 61 -9 121 -18 135 -19 71 -9 441 -89 490
-105 14 -5 43 -12 65 -15 22 -4 49 -10 60 -15 11 -5 100 -34 198 -65 152 -49
417 -144 482 -174 11 -5 83 -38 160 -72 376 -167 698 -358 1100 -652 83 -61
152 -113 155 -116 3 -4 36 -31 75 -61 102 -80 297 -250 395 -344 47 -44 100
-93 118 -108 17 -15 32 -30 32 -34 0 -4 42 -50 93 -103 175 -181 357 -402 551
-671 69 -96 131 -180 136 -187 6 -7 10 -14 10 -17 0 -3 21 -35 47 -73 78 -115
180 -286 277 -467 52 -96 166 -323 166 -330 0 -3 15 -37 34 -78 93 -201 211
-522 282 -768 9 -30 20 -68 25 -85 14 -51 66 -265 83 -350 47 -226 66 -357
106 -720 15 -137 23 -614 13 -755 l-8 -115 -200 0 -200 0 5 120 c15 358 -4
714 -56 1075 -9 63 -19 140 -23 170 -3 30 -10 54 -16 52 -5 -2 -32 -24 -58
-49 -52 -49 -51 -45 -27 -148 5 -22 14 -82 20 -133 5 -50 14 -131 20 -180 25
-229 29 -863 5 -902 -4 -7 -1730 -10 -5661 -10 -5376 0 -5655 1 -5662 18 -4 9
-7 172 -7 362 0 371 11 523 60 849 l16 104 -50 51 c-28 27 -52 48 -55 46 -4
-5 -32 -184 -47 -305 -4 -38 -13 -106 -19 -150 -21 -154 -36 -581 -27 -768 5
-98 6 -184 3 -192 -4 -12 -36 -15 -181 -15 l-175 0 0 33 c0 17 -5 103 -10 190
-16 244 14 729 66 1057 9 58 17 119 19 135 1 17 10 64 19 105 56 250 81 352
97 404 11 33 19 66 19 74 0 9 12 50 26 91 15 42 37 110 50 151 36 116 128 364
174 465 9 22 28 65 41 95 27 66 241 493 250 500 3 3 21 32 39 65 210 379 575
871 934 1259 262 284 702 660 1036 886 197 133 248 166 390 250 141 84 531
281 640 325 47 18 62 24 120 48 19 8 55 22 80 32 25 9 54 21 65 26 47 20 289
101 425 142 117 36 349 91 535 127 33 6 71 14 85 18 14 3 36 6 50 8 14 1 75 9
135 18 170 26 376 47 535 56 175 10 706 4 845 -10z"/>
<path d="M6955 13370 c-234 -14 -654 -67 -690 -87 -12 -7 -6 -18 34 -57 l49
-48 68 10 c266 42 640 72 879 72 197 0 519 -25 779 -60 164 -22 151 -24 219
41 46 45 48 44 -128 70 -371 56 -869 80 -1210 59z"/>
<path d="M6155 13269 c-16 -6 -57 -14 -89 -19 -57 -9 -63 -12 -143 -92 -46
-45 -83 -86 -83 -90 0 -4 26 2 58 12 31 10 102 28 157 40 55 11 116 25 136 30
20 6 52 10 72 10 56 0 55 18 -1 72 -53 50 -58 52 -107 37z"/>
<path d="M8310 13225 c-58 -59 -58 -59 20 -69 76 -9 302 -58 343 -75 16 -6 38
-11 50 -11 17 0 7 15 -53 76 -82 82 -114 104 -157 104 -15 0 -50 7 -77 15 -27
8 -54 15 -60 15 -7 0 -36 -25 -66 -55z"/>
<path d="M5830 13191 c-58 -16 -127 -35 -155 -44 -27 -8 -72 -22 -100 -30 -64
-20 -277 -96 -380 -137 -91 -36 -96 -38 -185 -78 -36 -17 -96 -44 -135 -62
-38 -17 -130 -63 -203 -102 l-133 -71 43 -44 44 -44 190 95 c104 52 234 113
289 136 55 23 114 48 130 55 79 34 387 140 520 179 11 4 43 28 70 55 62 59
120 121 114 120 -2 0 -51 -13 -109 -28z"/>
<path d="M8640 13211 c0 -14 168 -171 182 -171 16 0 140 -36 173 -50 11 -5 70
-25 130 -46 105 -35 243 -88 312 -120 17 -7 33 -14 36 -14 3 0 67 -29 142 -65
75 -36 137 -65 139 -65 2 0 44 -22 95 -50 51 -27 94 -50 95 -50 12 0 86 82 81
90 -12 19 -376 199 -537 265 -35 15 -76 32 -93 40 -68 30 -387 141 -500 175
-48 14 -178 49 -222 60 -18 4 -33 5 -33 1z"/>
<path d="M4433 12607 c-35 -23 -116 -76 -180 -117 -217 -138 -527 -369 -692
-515 -101 -90 -258 -235 -296 -274 l-39 -41 39 -40 c23 -23 43 -36 51 -32 6 4
57 50 112 102 235 225 506 442 787 632 158 106 357 228 374 228 22 0 10 27
-27 63 -21 20 -44 37 -52 36 -8 0 -43 -19 -77 -42z"/>
<path d="M10010 12605 c-39 -40 -42 -45 -24 -52 73 -27 512 -318 654 -433 10
-8 53 -42 96 -75 122 -95 239 -195 415 -357 l116 -107 40 41 41 41 -111 107
c-259 249 -531 465 -867 690 -108 73 -299 190 -309 190 -4 0 -27 -20 -51 -45z"/>
<path d="M7160 12628 c0 -2 -36 -91 -80 -198 -44 -107 -80 -198 -80 -203 0 -4
10 -7 22 -5 16 2 28 19 47 66 l26 62 89 -2 88 -3 26 -62 c21 -52 30 -63 49
-63 13 0 23 2 23 4 0 2 -38 93 -84 203 -68 160 -88 199 -105 201 -12 2 -21 2
-21 0z m60 -148 c18 -45 31 -82 29 -84 -9 -8 -139 -17 -139 -10 0 16 65 174
71 174 4 0 21 -36 39 -80z"/>
<path d="M7580 12609 c0 -8 -9 -88 -20 -179 -25 -210 -25 -220 -1 -220 16 0
21 9 26 48 13 101 5 94 98 87 97 -7 132 8 161 70 25 52 14 99 -32 146 -34 33
-43 37 -112 43 -41 4 -85 10 -97 13 -15 3 -23 1 -23 -8z m135 -49 c86 -14 116
-62 84 -133 -18 -40 -43 -48 -125 -41 -74 7 -75 7 -70 33 3 14 8 54 11 89 8
70 4 68 100 52z"/>
<path d="M6317 12536 c-65 -24 -107 -78 -122 -158 -16 -83 49 -198 128 -227
70 -27 155 -7 195 44 l21 26 3 -23 c2 -15 10 -23 23 -23 23 0 23 -6 0 108 -12
55 -23 87 -31 87 -7 0 -36 -5 -64 -11 -39 -8 -50 -15 -47 -27 2 -10 7 -16 13
-16 5 1 25 4 45 8 35 6 37 5 42 -26 13 -89 -121 -151 -203 -95 -54 36 -73 70
-77 134 -7 100 44 164 131 165 34 1 55 -5 77 -21 24 -18 33 -20 45 -10 30 25
-54 80 -121 79 -11 -1 -37 -7 -58 -14z"/>
<path d="M8085 12528 c-2 -7 -22 -93 -45 -192 -41 -176 -42 -207 -8 -193 8 2
20 35 27 71 7 36 16 66 20 66 3 0 33 -7 66 -15 85 -20 109 -19 145 11 59 50
72 100 44 161 -22 46 -50 62 -142 84 -91 22 -101 23 -107 7z m125 -53 c63 -17
90 -43 90 -90 0 -35 -30 -80 -59 -90 -18 -5 -137 18 -149 29 -3 3 3 42 13 86
20 89 18 88 105 65z"/>
<path d="M5902 12432 c-10 -7 -1 -42 39 -156 28 -81 49 -149 48 -151 -2 -1
-80 46 -174 106 -93 59 -175 108 -182 108 -6 1 -14 -3 -17 -8 -4 -5 23 -92 58
-193 53 -155 67 -183 85 -186 11 -2 21 2 21 8 0 7 -22 77 -50 157 -27 79 -44
141 -37 137 6 -4 82 -52 168 -106 147 -92 199 -115 199 -85 -1 24 -127 371
-136 374 -5 1 -15 -1 -22 -5z"/>
<path d="M8851 12293 c-5 -10 -41 -95 -79 -190 -66 -162 -69 -172 -51 -178 12
-4 22 -5 24 -3 2 1 35 82 75 178 39 96 73 177 76 182 2 4 -4 12 -15 18 -16 8
-22 7 -30 -7z"/>
<path d="M9097 12128 c-60 -109 -157 -291 -157 -294 0 -2 9 -8 19 -14 18 -9
27 3 91 126 40 75 76 132 80 127 4 -4 23 -91 40 -193 31 -175 49 -226 71 -203
4 5 48 84 98 177 68 128 88 173 79 183 -6 7 -14 13 -19 13 -4 0 -40 -61 -79
-135 -40 -74 -75 -135 -79 -135 -4 0 -22 84 -40 188 -33 186 -43 222 -61 222
-5 0 -24 -28 -43 -62z"/>
<path d="M5222 12149 c-57 -29 -92 -82 -99 -153 -5 -47 -2 -63 22 -112 45 -92
136 -138 226 -114 170 46 183 292 18 374 -64 32 -110 33 -167 5z m120 -29 c41
-12 104 -75 114 -115 4 -14 4 -49 2 -76 -12 -117 -143 -163 -231 -81 -108 101
-68 263 68 281 6 0 26 -4 47 -9z"/>
<path d="M4788 11896 c-106 -55 -139 -138 -82 -205 32 -38 77 -41 159 -10 74
27 123 29 141 4 24 -32 16 -61 -25 -98 -38 -34 -81 -50 -141 -51 -14 -1 -24
-4 -22 -8 1 -5 2 -15 2 -23 0 -36 133 0 190 51 65 59 72 122 20 174 -28 28
-86 26 -176 -5 -55 -19 -79 -23 -97 -16 -33 13 -45 62 -23 96 21 31 86 65 126
65 23 0 30 4 30 20 0 16 -7 20 -37 20 -21 0 -50 -7 -65 -14z"/>
<path d="M9844 11725 c-6 -14 7 -27 78 -85 l22 -17 -112 -137 c-62 -75 -112
-140 -112 -145 0 -5 6 -14 14 -20 11 -9 34 14 117 116 57 70 109 134 115 142
10 12 19 8 64 -27 53 -42 75 -48 75 -22 0 14 -231 210 -247 210 -5 0 -11 -7
-14 -15z"/>
<path d="M3095 11528 c-131 -145 -243 -274 -285 -329 -19 -24 -37 -46 -40 -49
-72 -65 -540 -764 -540 -806 0 -12 78 -89 84 -83 2 2 38 62 80 132 204 345
550 804 807 1070 49 50 89 94 89 97 0 10 -75 80 -85 79 -6 0 -55 -50 -110
-111z"/>
<path d="M11327 11602 c-20 -21 -37 -41 -37 -44 0 -3 24 -31 53 -61 62 -63
235 -260 292 -332 22 -27 43 -52 46 -55 7 -6 180 -235 226 -300 76 -105 205
-304 273 -420 41 -69 75 -127 77 -129 2 -3 23 15 48 39 l44 43 -23 41 c-156
275 -482 737 -666 941 -25 28 -75 84 -112 125 -106 118 -173 190 -179 190 -3
0 -22 -17 -42 -38z"/>
<path d="M4130 11365 c-102 -102 -113 -116 -99 -130 13 -13 20 -10 64 35 l49
50 132 -131 c116 -116 132 -128 144 -114 12 14 -2 32 -116 146 l-129 129 53
53 c41 41 50 55 40 65 -7 7 -15 12 -18 12 -3 0 -57 -52 -120 -115z"/>
<path d="M10174 11311 c-89 -41 -148 -153 -124 -239 32 -119 160 -171 276
-111 90 46 138 165 103 256 -35 93 -158 138 -255 94z m163 -46 c33 -22 63 -74
63 -110 0 -39 -31 -104 -61 -132 -33 -30 -72 -43 -126 -43 -39 0 -50 5 -84 39
-34 34 -39 44 -39 86 0 81 42 144 117 171 44 16 94 12 130 -11z"/>
<path d="M7550 11224 c-155 -19 -384 -87 -536 -159 -323 -154 -556 -486 -699
-995 -14 -51 -18 -56 -62 -74 -148 -61 -345 -236 -461 -409 -111 -166 -187
-347 -228 -542 -27 -128 -27 -445 0 -560 43 -187 98 -312 193 -440 68 -91 78
-101 116 -110 36 -9 34 3 -9 45 -19 19 -59 71 -88 115 -78 118 -113 197 -152
344 -57 213 -35 622 41 788 8 17 15 37 15 45 1 21 97 207 148 283 56 85 236
268 312 317 30 19 80 48 110 64 30 15 58 33 62 38 4 6 49 10 105 10 112 -1
209 -26 281 -75 24 -16 47 -27 52 -24 5 3 15 36 24 73 30 131 136 405 209 542
100 186 289 412 389 465 l37 19 68 -23 c258 -88 456 -273 582 -542 130 -277
160 -653 80 -981 -7 -28 -19 -42 -54 -62 -72 -43 -210 -181 -270 -272 -184
-276 -268 -645 -220 -967 36 -239 118 -414 254 -539 72 -68 141 -103 241 -124
125 -26 214 -10 381 70 53 25 101 46 107 46 12 0 24 28 17 40 -3 5 -24 0 -48
-10 -53 -25 -167 -26 -243 -4 -165 48 -301 213 -365 444 -21 74 -23 106 -23
255 0 152 3 181 27 272 72 275 202 472 393 593 153 97 367 96 478 -1 45 -40
66 -48 66 -26 0 18 -178 199 -227 231 -22 15 -43 36 -46 46 -3 10 1 67 8 127
34 285 27 598 -20 829 -74 364 -246 623 -497 750 -120 60 -225 85 -378 89 -74
2 -151 1 -170 -1z"/>
<path d="M3844 11040 c-83 -53 -115 -161 -64 -215 50 -54 97 -51 178 13 61 48
97 63 126 52 75 -28 17 -153 -88 -191 -37 -13 -47 -35 -22 -45 37 -14 135 55
166 117 30 58 26 109 -10 144 -44 42 -85 39 -154 -10 -89 -64 -122 -78 -146
-65 -64 34 -32 133 56 172 30 13 41 23 38 33 -8 21 -43 18 -80 -5z"/>
<path d="M10528 10792 c-142 -225 -142 -224 8 -194 55 11 100 19 101 18 1 -1
-23 -41 -54 -89 -81 -128 -81 -129 178 -76 112 23 207 45 212 49 4 3 1 14 -5
23 -12 15 -27 13 -192 -24 -98 -22 -180 -38 -182 -36 -2 2 18 37 45 79 l49 75
78 17 c112 24 111 24 91 43 -14 15 -23 15 -74 3 -32 -7 -64 -15 -72 -18 -8 -3
5 23 28 57 39 56 47 91 23 91 -5 0 -31 -33 -58 -74 l-48 -73 -92 -20 c-55 -11
-90 -15 -86 -9 3 6 48 75 99 154 51 79 93 149 93 156 0 8 -6 18 -12 24 -10 7
-42 -36 -130 -176z"/>
<path d="M3506 10589 c-57 -93 -66 -113 -55 -124 18 -16 319 -205 328 -205 8
0 141 215 141 228 0 5 -7 12 -15 15 -10 4 -31 -22 -72 -88 -32 -52 -61 -94
-66 -95 -17 0 -117 74 -113 85 2 7 25 44 50 83 38 60 43 72 30 83 -8 6 -16 10
-18 8 -2 -2 -25 -38 -51 -79 -26 -41 -49 -77 -51 -79 -5 -6 -114 62 -114 71 0
4 25 49 57 99 45 73 53 93 42 100 -8 5 -16 9 -19 8 -3 0 -36 -50 -74 -110z"/>
<path d="M2203 10313 c-7 -3 -13 -10 -13 -17 0 -7 -12 -35 -26 -62 -168 -311
-322 -677 -413 -974 -18 -58 -36 -116 -41 -130 -19 -54 -51 -182 -47 -186 2
-2 39 32 83 76 81 83 85 91 134 245 24 78 105 304 125 350 7 17 33 75 56 130
45 105 196 411 226 458 l18 27 -45 44 c-25 24 -51 42 -57 39z"/>
<path d="M12322 10277 c-41 -41 -52 -70 -33 -82 15 -9 165 -311 226 -457 31
-73 61 -142 66 -153 19 -41 76 -204 113 -320 21 -66 42 -132 47 -146 12 -32
169 -189 169 -169 0 19 -48 194 -88 320 -70 223 -200 545 -307 760 -51 104
-144 282 -149 287 -1 1 -21 -17 -44 -40z"/>
<path d="M10900 10215 c-165 -80 -184 -94 -161 -118 5 -5 68 21 141 58 73 36
135 64 138 61 3 -3 -33 -86 -80 -183 -64 -133 -84 -182 -77 -195 8 -15 29 -7
185 68 97 46 178 84 180 84 10 0 2 31 -9 36 -7 2 -75 -25 -151 -61 -76 -36
-139 -65 -141 -65 -2 0 37 83 87 185 80 167 96 215 71 215 -5 0 -87 -38 -183
-85z"/>
<path d="M3302 10194 c-17 -16 -49 -69 -71 -117 l-40 -88 82 -38 c45 -21 126
-59 181 -85 54 -25 100 -46 103 -46 2 0 24 41 48 92 49 101 57 157 27 194 -36
45 -98 57 -140 28 -20 -14 -22 -14 -22 0 0 31 -53 77 -96 83 -36 5 -45 1 -72
-23z m117 -50 c27 -34 27 -38 -10 -122 l-32 -71 -61 31 c-33 17 -62 31 -64 33
-5 4 51 120 66 138 24 27 76 22 101 -9z m165 -55 c35 -28 34 -64 -5 -142 -17
-34 -33 -64 -35 -66 -3 -3 -122 46 -132 54 -7 6 78 163 90 168 27 11 56 6 82
-14z"/>
<path d="M6544 9601 c-164 -42 -334 -245 -414 -496 -128 -404 -48 -817 178
-917 58 -26 150 -21 219 13 117 56 240 210 313 391 136 343 117 733 -46 928
-52 62 -172 101 -250 81z"/>
<path d="M8540 9094 c-68 -18 -134 -62 -138 -92 -2 -13 4 -34 12 -48 22 -32
60 -31 121 3 36 20 66 27 124 31 42 2 82 9 89 14 13 11 16 56 4 74 -24 36
-115 44 -212 18z"/>
<path d="M12760 9037 c0 -10 5 -28 12 -40 13 -26 63 -223 83 -330 21 -114 23
-115 77 -59 l46 47 -17 100 c-10 55 -22 109 -28 120 -7 11 -48 56 -92 100 -55
54 -81 74 -81 62z"/>
<path d="M1721 8956 c-80 -81 -83 -86 -97 -152 -32 -152 -32 -150 17 -200 24
-24 46 -44 50 -44 4 0 12 26 18 58 6 31 20 98 32 147 11 50 25 110 30 135 5
25 16 61 25 82 29 66 10 59 -75 -26z"/>
<path d="M10992 8230 c-45 -28 -74 -96 -80 -187 -8 -121 44 -193 138 -193 80
0 140 57 140 133 0 110 -136 174 -215 101 -29 -27 -29 -27 -14 32 23 89 103
121 161 63 32 -31 56 -28 44 7 -19 55 -118 80 -174 44z m101 -161 c61 -31 75
-99 30 -148 -41 -44 -96 -45 -137 -5 -74 75 14 200 107 153z"/>
<path d="M3890 8130 l0 -79 -36 24 c-68 46 -149 21 -184 -58 -24 -53 -25 -81
-1 -133 37 -82 146 -110 207 -53 24 22 24 22 24 2 0 -19 17 -33 41 -33 12 0
12 37 -1 45 -6 4 -10 77 -10 186 0 172 -1 179 -20 179 -18 0 -20 -7 -20 -80z
m-50 -85 c39 -20 50 -43 50 -105 0 -41 -5 -56 -25 -75 -59 -60 -165 -9 -165
78 1 50 18 85 51 103 32 18 54 17 89 -1z"/>
<path d="M2890 8000 l0 -200 135 0 c128 0 135 1 135 20 0 19 -7 20 -110 20
l-110 0 0 75 0 75 95 0 c78 0 95 3 95 15 0 12 -17 15 -95 15 l-95 0 0 70 0 70
111 0 c100 0 110 2 107 18 -3 15 -19 17 -136 20 l-132 3 0 -201z"/>
<path d="M3500 8140 c0 -43 -3 -50 -20 -50 -11 0 -20 -7 -20 -15 0 -8 9 -15
20 -15 19 0 20 -7 20 -113 0 -98 3 -116 18 -130 30 -28 116 -18 110 12 -3 11
-12 15 -32 13 -49 -5 -56 10 -56 119 l0 99 35 0 c24 0 35 5 35 15 0 10 -11 15
-35 15 l-35 0 0 50 c0 43 -3 50 -20 50 -17 0 -20 -7 -20 -50z"/>
<path d="M10373 8170 c-36 -8 -83 -36 -83 -49 0 -5 6 -14 14 -20 11 -9 16 -9
21 0 4 6 23 17 41 25 29 12 39 12 69 0 47 -20 48 -55 2 -90 -19 -15 -38 -26
-43 -26 -20 0 -87 -65 -100 -96 -27 -64 -27 -64 106 -64 113 0 120 1 120 20 0
19 -7 20 -95 20 -61 0 -95 4 -95 11 0 17 53 62 108 91 65 35 88 67 76 110 -16
53 -77 83 -141 68z"/>
<path d="M10648 8164 c-63 -33 -90 -160 -52 -240 47 -100 191 -99 239 2 39 80
14 196 -49 235 -37 23 -100 24 -138 3z m113 -34 c28 -16 49 -63 49 -115 0 -78
-36 -125 -95 -125 -37 0 -62 16 -80 50 -29 56 -11 164 32 189 23 13 69 14 94
1z"/>
<path d="M11313 8160 c-86 -52 -95 -203 -16 -277 28 -27 42 -33 79 -33 25 0
57 6 72 14 42 22 72 84 72 150 0 65 -16 103 -60 140 -39 32 -100 35 -147 6z
m131 -50 c32 -38 42 -91 27 -141 -17 -57 -47 -81 -96 -77 -32 2 -44 9 -62 37
-40 59 -26 171 24 200 36 21 80 13 107 -19z"/>
<path d="M3258 8084 c-32 -17 -48 -43 -48 -77 0 -34 25 -52 99 -74 70 -20 93
-42 75 -70 -20 -32 -60 -39 -112 -20 -64 24 -65 24 -69 7 -5 -23 58 -50 117
-50 64 0 110 35 110 85 0 41 -14 53 -97 80 -73 23 -95 44 -77 72 15 23 51 31
94 21 54 -14 63 -14 67 -2 5 16 -58 44 -99 44 -18 -1 -45 -7 -60 -16z"/>
<path d="M3233 6636 c-100 -33 -170 -93 -220 -189 -23 -44 -28 -68 -31 -153
-7 -173 30 -278 139 -397 l60 -66 -21 -41 c-28 -56 -17 -67 75 -75 l74 -7 69
-72 c87 -90 102 -118 102 -198 0 -77 -24 -122 -77 -145 -77 -32 -145 18 -178
132 -24 79 -25 80 -105 79 -153 -3 -180 -23 -160 -121 16 -79 80 -210 126
-255 20 -21 60 -49 88 -63 47 -23 60 -25 198 -25 174 0 193 6 274 92 85 89 98
123 102 264 5 142 -7 195 -65 293 -21 35 -67 95 -102 133 l-64 70 13 36 c11
32 11 37 -6 49 -10 7 -43 13 -74 13 -56 0 -58 1 -98 49 -71 83 -87 125 -87
218 0 77 2 84 29 112 23 24 39 31 67 31 49 0 81 -28 114 -99 32 -69 49 -76
144 -60 124 20 136 31 116 117 -28 118 -96 211 -190 260 -44 23 -64 26 -160
29 -73 2 -124 -2 -152 -11z"/>
<path d="M4427 6630 c-21 -6 -50 -16 -66 -24 -50 -26 -140 -126 -171 -189 -29
-62 -29 -64 -36 -289 l-7 -227 -49 -30 c-64 -40 -64 -62 0 -102 l49 -30 7
-222 c6 -204 9 -226 31 -274 89 -195 330 -281 523 -187 61 30 159 120 185 170
25 48 37 142 44 336 l6 177 49 30 c64 40 64 62 -2 103 l-50 31 0 121 c-1 174
-15 313 -40 379 -28 75 -113 167 -187 203 -46 23 -70 28 -151 30 -53 2 -114
-1 -135 -6z m175 -287 c47 -41 48 -56 48 -513 0 -473 -1 -485 -59 -514 -60
-32 -127 -11 -155 48 -14 30 -16 88 -16 480 0 488 -1 478 59 512 33 18 96 12
123 -13z"/>
<path d="M5474 6613 c-12 -2 -25 -14 -28 -26 -3 -12 -6 -103 -6 -203 0 -99 -3
-248 -7 -330 l-6 -149 -46 -30 c-60 -39 -60 -61 1 -100 l47 -30 0 -201 c1
-280 11 -471 27 -492 10 -14 29 -17 117 -17 58 0 109 4 113 8 15 15 23 151 24
422 0 149 4 276 9 283 5 8 17 12 27 10 15 -2 41 -68 129 -334 61 -181 118
-342 128 -357 22 -35 46 -40 162 -35 77 2 99 6 109 20 15 21 26 218 27 498 l0
195 47 30 c61 39 61 61 1 100 l-46 30 -6 339 c-4 215 -10 343 -17 351 -13 15
-155 30 -199 20 -17 -4 -35 -14 -40 -23 -5 -10 -12 -161 -16 -337 -7 -378 -8
-387 -38 -383 -23 3 -13 -26 -183 533 -37 122 -61 186 -75 198 -18 14 -40 17
-128 16 -58 -1 -116 -4 -127 -6z"/>
<path d="M7067 6610 c-94 -17 -196 -102 -242 -203 -22 -48 -25 -70 -31 -281
l-7 -229 -30 -16 c-16 -9 -41 -26 -56 -38 l-26 -21 20 -22 c11 -12 36 -30 56
-40 l36 -19 7 -233 c7 -232 7 -233 36 -283 40 -70 115 -139 185 -172 53 -25
71 -28 160 -28 90 0 106 3 160 29 33 17 85 55 117 86 47 47 60 68 78 126 20
64 21 89 20 324 -1 140 -4 275 -8 300 -7 42 -9 45 -47 53 -22 4 -97 7 -167 5
-163 -4 -163 -4 -163 -132 0 -102 8 -121 55 -131 16 -3 35 -13 42 -22 17 -21
24 -223 9 -274 -32 -105 -159 -119 -207 -22 -17 35 -19 70 -22 428 -4 434 0
476 49 525 53 53 136 34 173 -38 7 -15 16 -66 19 -115 3 -48 9 -92 12 -97 8
-13 215 -13 235 0 12 8 15 35 14 148 -2 117 -5 147 -23 186 -28 64 -121 159
-179 184 -55 23 -202 35 -275 22z"/>
<path d="M9910 6611 c-43 -6 -45 -8 -52 -46 -4 -22 -7 -180 -7 -352 l-1 -311
-45 -26 c-59 -35 -72 -59 -45 -84 12 -11 36 -28 55 -38 l34 -18 3 -336 c2
-267 6 -340 17 -353 18 -22 197 -25 226 -3 17 12 19 35 23 275 6 308 -5 285
137 296 70 5 104 13 151 35 74 36 146 110 180 185 25 55 26 57 22 298 l-3 242
-29 53 c-59 107 -156 166 -298 182 -89 10 -294 11 -368 1z m372 -287 c39 -20
65 -59 79 -119 16 -74 8 -202 -18 -251 -38 -74 -141 -107 -197 -63 l-26 20 0
204 c0 212 1 218 45 227 28 6 85 -3 117 -18z"/>
<path d="M11070 6613 c-49 -9 -50 -12 -51 -237 -1 -116 -4 -271 -8 -345 l-6
-135 -45 -26 c-65 -38 -65 -62 -1 -101 l51 -32 1 -276 c0 -304 7 -408 30 -422
8 -5 57 -9 110 -9 78 0 99 3 110 17 11 12 15 75 19 270 6 304 -2 286 137 298
48 4 111 16 138 26 70 26 145 95 185 170 31 58 34 71 41 198 11 180 -2 335
-35 406 -30 66 -91 126 -163 162 -49 23 -72 28 -197 34 -153 8 -276 9 -316 2z
m384 -291 c18 -10 41 -38 56 -67 22 -44 25 -63 25 -150 -1 -128 -25 -187 -89
-216 -49 -22 -105 -24 -131 -5 -23 17 -34 101 -34 278 -1 130 8 173 38 182 28
8 103 -4 135 -22z"/>
<path d="M8907 6598 c-19 -15 -30 -64 -87 -388 -22 -129 -43 -248 -46 -263 -4
-20 -21 -38 -58 -62 -28 -18 -58 -41 -66 -50 -15 -18 -11 -24 63 -80 l26 -20
-55 -325 c-30 -179 -53 -335 -50 -346 7 -25 40 -34 131 -34 83 0 124 9 135 29
5 10 19 75 31 145 15 84 29 136 42 152 18 23 24 25 95 22 73 -3 77 -4 98 -35
14 -21 25 -62 33 -125 19 -140 28 -167 59 -179 37 -15 207 -8 224 9 20 20 14
80 -39 401 l-48 294 25 16 c49 32 71 56 65 71 -3 8 -31 31 -63 51 l-58 36 -33
194 c-61 360 -82 463 -98 481 -14 16 -35 18 -163 18 -101 0 -151 -4 -163 -12z
m190 -709 c7 -15 20 -70 29 -123 20 -116 15 -126 -56 -126 -62 0 -74 14 -65
82 9 80 26 161 37 181 13 25 40 18 55 -14z"/>
<path d="M147 4670 c-34 -27 -44 -78 -23 -118 9 -17 22 -34 28 -39 7 -4 375
-10 817 -13 786 -5 804 -5 815 -25 6 -10 22 -37 36 -60 13 -22 35 -60 48 -85
139 -258 492 -759 738 -1045 145 -168 464 -493 627 -638 468 -417 1038 -795
1562 -1036 358 -164 808 -322 1099 -386 344 -76 407 -88 596 -115 501 -71
1173 -77 1665 -14 696 90 1317 276 1930 579 652 322 1228 744 1770 1296 221
226 380 410 551 639 202 270 337 476 529 808 l48 82 620 0 621 0 28 27 c39 38
39 98 0 136 l-28 27 -7026 0 -7025 0 -26 -20z m12660 -177 c-3 -5 -29 -48 -59
-98 -30 -49 -57 -97 -61 -105 -4 -8 -15 -27 -25 -41 -9 -15 -41 -65 -70 -110
-92 -145 -247 -365 -339 -481 -114 -145 -168 -213 -173 -218 -3 -3 -45 -52
-95 -110 -200 -236 -441 -468 -774 -748 -207 -174 -751 -550 -891 -615 -8 -4
-31 -17 -50 -28 -47 -29 -307 -160 -395 -199 -38 -18 -83 -38 -100 -45 -175
-80 -711 -268 -825 -290 -19 -3 -46 -10 -60 -15 -51 -17 -420 -96 -490 -105
-14 -1 -74 -10 -135 -19 -335 -48 -498 -59 -895 -59 -397 0 -542 10 -880 59
-63 9 -124 17 -135 18 -11 2 -31 5 -45 8 -14 4 -52 11 -85 18 -153 28 -415 91
-535 127 -239 72 -588 198 -730 265 -25 11 -88 41 -140 65 -52 24 -111 52
-130 62 -19 11 -78 41 -130 68 -84 43 -115 61 -195 110 -11 7 -38 22 -60 33
-62 34 -347 225 -475 319 -609 448 -1062 910 -1516 1551 -108 152 -334 510
-334 529 0 5 -7 14 -15 21 -50 42 -306 40 5416 40 2986 0 5428 -3 5426 -7z"/>
<path d="M2405 4433 c80 -140 279 -428 429 -623 141 -183 442 -520 464 -520 5
0 26 18 47 40 l39 40 -85 88 c-233 238 -600 713 -753 975 l-28 47 -70 0 -70 0
27 -47z"/>
<path d="M12216 4448 c-160 -278 -609 -856 -807 -1040 l-40 -37 37 -40 c20
-23 41 -41 47 -41 22 0 275 280 438 485 134 167 283 380 420 598 l68 107 -72
0 c-71 0 -73 -1 -91 -32z"/>
<path d="M3352 3307 c-18 -18 -32 -35 -32 -39 0 -8 172 -174 286 -276 239
-213 598 -476 889 -653 l110 -68 43 42 c23 23 42 45 42 49 0 5 -10 13 -22 19
-13 5 -32 15 -43 22 -11 7 -42 25 -70 41 -27 16 -111 70 -185 119 -330 219
-564 404 -864 685 -55 50 -104 92 -111 92 -6 0 -25 -15 -43 -33z"/>
<path d="M11265 3263 c-97 -92 -293 -265 -355 -313 -25 -19 -47 -37 -50 -40
-8 -10 -211 -163 -285 -216 -223 -157 -470 -314 -494 -314 -25 0 -20 -25 10
-57 46 -47 64 -56 81 -40 7 7 54 37 103 67 295 178 689 470 921 685 168 155
234 220 234 230 0 13 -62 75 -75 75 -6 -1 -46 -35 -90 -77z"/>
<path d="M5060 3124 c-44 -92 -80 -170 -80 -174 0 -8 31 -23 35 -18 2 2 32 64
67 138 l65 135 7 -133 c6 -102 11 -135 22 -139 9 -3 60 25 119 66 58 40 105
70 105 68 0 -3 -27 -62 -60 -133 -46 -97 -58 -129 -48 -136 23 -14 27 -9 62
65 136 289 127 266 107 277 -15 7 -41 -7 -140 -75 -92 -64 -121 -80 -121 -66
0 10 -5 76 -10 147 -10 119 -17 143 -43 144 -4 0 -44 -75 -87 -166z"/>
<path d="M8915 3116 c-43 -18 -81 -38 -83 -44 -5 -17 131 -334 146 -340 30
-11 32 15 7 72 -14 31 -25 58 -25 61 0 2 21 13 47 25 l47 20 69 -46 c56 -37
74 -44 90 -37 19 9 14 14 -50 59 l-70 50 18 23 c42 52 16 141 -51 176 -40 21
-54 19 -145 -19z m153 -42 c26 -30 29 -74 5 -102 -23 -26 -121 -68 -133 -56
-13 14 -62 136 -57 141 16 15 125 51 142 47 11 -3 30 -17 43 -30z"/>
<path d="M5631 2869 c-102 -115 -130 -153 -120 -160 22 -14 25 -12 67 36 22
25 43 45 48 45 5 0 42 -12 82 -26 l72 -27 0 -58 c0 -49 3 -60 21 -69 11 -7 22
-10 24 -8 7 6 -21 394 -29 407 -4 6 -13 11 -19 11 -7 0 -72 -68 -146 -151z
m145 -86 c-1 -1 -32 7 -68 19 l-67 22 62 70 62 69 7 -89 c4 -49 6 -90 4 -91z"/>
<path d="M8508 2968 c-12 -10 -20 -58 -33 -206 -10 -106 -15 -195 -12 -198 3
-4 13 -4 21 -1 9 4 17 28 21 70 l7 65 79 22 78 23 28 -33 c15 -18 32 -39 36
-46 9 -15 43 -19 51 -6 2 4 -50 73 -116 152 -153 186 -140 173 -160 158z m85
-126 l55 -69 -69 -20 -69 -20 5 66 c7 72 13 111 19 111 2 0 29 -31 59 -68z"/>
<path d="M6095 2908 c-3 -7 -22 -91 -44 -186 -26 -118 -35 -175 -27 -177 6 -2
46 -11 89 -20 62 -12 87 -13 120 -4 58 15 102 63 122 133 36 123 -16 208 -147
241 -103 25 -108 26 -113 13z m152 -68 c51 -22 73 -61 73 -127 0 -64 -33 -122
-83 -147 -34 -16 -45 -17 -102 -6 -51 10 -65 16 -65 30 0 16 44 223 56 263 5
16 12 18 42 12 21 -4 56 -15 79 -25z"/>
<path d="M7942 2823 c-5 -10 -26 -58 -47 -106 -21 -48 -41 -86 -45 -85 -4 2
-38 40 -75 86 -52 63 -73 82 -92 82 -30 0 -37 11 79 -127 71 -86 77 -97 83
-150 4 -32 8 -64 10 -70 4 -13 45 -19 45 -7 0 3 -5 35 -10 72 l-11 67 56 123
c30 68 55 126 55 128 0 12 -41 1 -48 -13z"/>
<path d="M6566 2788 c-12 -72 -36 -286 -36 -314 l0 -31 121 -13 c100 -10 123
-10 130 1 13 22 3 26 -77 33 -132 12 -135 13 -129 52 3 19 7 49 10 67 l5 33
53 -7 c86 -12 127 -11 127 5 0 16 -21 22 -111 31 l-67 7 5 42 c9 89 9 89 56
82 23 -3 70 -8 105 -12 57 -6 62 -5 62 13 0 17 -12 21 -102 31 -148 17 -146
18 -152 -20z"/>
<path d="M7247 2773 c-6 -10 8 -372 14 -376 2 -2 53 0 113 3 106 5 108 6 137
38 40 45 40 93 -1 134 l-30 30 20 25 c26 34 25 72 -3 114 l-23 34 -111 3 c-61
1 -113 -1 -116 -5z m213 -49 c21 -25 16 -75 -9 -96 -18 -13 -40 -18 -92 -18
l-69 0 0 65 0 65 79 0 c59 0 82 -4 91 -16z m23 -176 c23 -27 22 -52 -5 -82
-20 -21 -33 -25 -100 -28 l-78 -3 0 36 c0 20 -3 50 -6 67 l-6 31 63 4 c85 5
111 0 132 -25z"/>
<path d="M4677 2312 c-20 -21 -37 -43 -37 -49 0 -6 17 -20 38 -30 20 -11 91
-47 157 -81 166 -84 354 -169 485 -218 36 -13 74 -28 85 -34 23 -10 285 -97
390 -129 111 -33 220 -59 225 -54 9 8 -169 173 -187 173 -43 1 -511 168 -658
235 -27 13 -72 33 -100 45 -71 31 -306 150 -330 166 -26 19 -26 19 -68 -24z"/>
<path d="M10016 2342 c-8 -13 -314 -163 -451 -222 -190 -82 -467 -182 -635
-229 -33 -10 -64 -32 -122 -89 -43 -41 -78 -79 -78 -82 0 -25 497 126 695 211
11 5 58 24 105 42 157 63 539 247 578 279 10 9 4 20 -30 55 -43 44 -53 49 -62
35z"/>
<path d="M5930 1853 c0 -18 156 -162 181 -166 13 -3 61 -13 107 -23 l83 -17
49 48 c28 27 49 54 47 60 -2 5 -19 11 -38 12 -42 3 -162 28 -289 60 -139 36
-140 36 -140 26z"/>
<path d="M8770 1850 c-16 -10 -143 -40 -308 -73 l-114 -23 39 -39 c69 -71 63
-69 155 -50 46 9 92 18 103 20 11 3 58 43 105 90 74 74 81 85 60 85 -14 0 -32
-4 -40 -10z"/>
<path d="M6387 1701 c-29 -27 -49 -52 -46 -55 12 -13 349 -59 549 -75 424 -35
572 -35 975 0 199 17 532 62 543 74 3 3 -16 28 -43 55 l-50 49 -100 -15 c-409
-58 -837 -78 -1165 -54 -198 15 -492 47 -583 65 -24 4 -37 -3 -80 -44z"/>
</g>
</svg>
